<?xml version="1.0" encoding="UTF-8" standalone="no"?>
<svg
   xmlns:dc="http://purl.org/dc/elements/1.1/"
   xmlns:cc="http://creativecommons.org/ns#"
   xmlns:rdf="http://www.w3.org/1999/02/22-rdf-syntax-ns#"
   xmlns:svg="http://www.w3.org/2000/svg"
   xmlns="http://www.w3.org/2000/svg"
   xmlns:sodipodi="http://sodipodi.sourceforge.net/DTD/sodipodi-0.dtd"
   xmlns:inkscape="http://www.inkscape.org/namespaces/inkscape"
   viewBox="0 0 576 512"
   version="1.1"
   id="svg4"
   sodipodi:docname="at.svg"
   width="576"
   height="512"
   inkscape:version="1.0.2-2 (e86c870879, 2021-01-15)">
  <metadata
     id="metadata10">
    <rdf:RDF>
      <cc:Work
         rdf:about="">
        <dc:format>image/svg+xml</dc:format>
        <dc:type
           rdf:resource="http://purl.org/dc/dcmitype/StillImage" />
        <dc:title></dc:title>
      </cc:Work>
    </rdf:RDF>
  </metadata>
  <defs
     id="defs8" />
  <sodipodi:namedview
     pagecolor="#ffffff"
     bordercolor="#666666"
     borderopacity="1"
     objecttolerance="10"
     gridtolerance="10"
     guidetolerance="10"
     inkscape:pageopacity="0"
     inkscape:pageshadow="2"
     inkscape:window-width="2560"
     inkscape:window-height="1377"
     id="namedview6"
     showgrid="false"
     inkscape:zoom="1.96875"
     inkscape:cx="256"
     inkscape:cy="256"
     inkscape:window-x="-8"
     inkscape:window-y="-8"
     inkscape:window-maximized="1"
     inkscape:current-layer="svg4" />
  <!-- Font Awesome Pro 5.15.4 by @fontawesome - https://fontawesome.com License - https://fontawesome.com/license (Commercial License) -->
  <path
     d="M 256,8 C 118.941,8 8,118.919 8,256 c 0,137.059 110.919,248 248,248 48.154,0 95.342,-14.14 135.408,-40.223 12.005,-7.815 14.625,-24.288 5.552,-35.372 L 386.783,415.972 C 379.112,406.601 365.604,404.305 355.41,410.843 325.92,429.757 291.314,440 256,440 154.542,440 72,357.458 72,256 72,154.542 154.542,72 256,72 c 100.139,0 184,57.619 184,160 0,38.786 -21.093,79.742 -58.17,83.693 -17.349,-0.454 -16.91,-12.857 -13.476,-30.024 l 23.433,-121.11 C 394.653,149.75 383.308,136 368.225,136 h -44.981 a 13.518,13.518 0 0 0 -13.432,11.993 l -0.01,0.092 C 295.105,130.184 269.354,126.31 249.831,126.31 175.251,126.31 112,188.544 112,277.77 c 0,65.303 36.785,105.87 96,105.87 26.984,0 57.369,-15.637 74.991,-38.333 9.522,34.104 40.613,34.103 70.71,34.103 C 462.609,379.41 504,307.798 504,232 504,95.653 394.023,8 256,8 Z m -21.68,304.43 c -22.249,0 -36.07,-15.623 -36.07,-40.771 0,-44.993 30.779,-72.729 58.63,-72.729 22.292,0 35.601,15.241 35.601,40.77 0,45.061 -33.875,72.73 -58.161,72.73 z"
     id="path2" />
</svg>
