<?xml version="1.0" encoding="UTF-8" standalone="no"?>
<svg
   xmlns:dc="http://purl.org/dc/elements/1.1/"
   xmlns:cc="http://creativecommons.org/ns#"
   xmlns:rdf="http://www.w3.org/1999/02/22-rdf-syntax-ns#"
   xmlns:svg="http://www.w3.org/2000/svg"
   xmlns="http://www.w3.org/2000/svg"
   xmlns:sodipodi="http://sodipodi.sourceforge.net/DTD/sodipodi-0.dtd"
   xmlns:inkscape="http://www.inkscape.org/namespaces/inkscape"
   aria-hidden="true"
   focusable="false"
   data-prefix="fad"
   data-icon="lock-open"
   class="svg-inline--fa fa-lock-open fa-w-18"
   role="img"
   viewBox="0 0 576 512"
   version="1.1"
   id="svg8"
   sodipodi:docname="lock-open-duotone_red.svg"
   inkscape:version="1.0.2-2 (e86c870879, 2021-01-15)">
  <metadata
     id="metadata14">
    <rdf:RDF>
      <cc:Work
         rdf:about="">
        <dc:format>image/svg+xml</dc:format>
        <dc:type
           rdf:resource="http://purl.org/dc/dcmitype/StillImage" />
        <dc:title></dc:title>
      </cc:Work>
    </rdf:RDF>
  </metadata>
  <defs
     id="defs12" />
  <sodipodi:namedview
     pagecolor="#ffffff"
     bordercolor="#666666"
     borderopacity="1"
     objecttolerance="10"
     gridtolerance="10"
     guidetolerance="10"
     inkscape:pageopacity="0"
     inkscape:pageshadow="2"
     inkscape:window-width="2560"
     inkscape:window-height="1377"
     id="namedview10"
     showgrid="false"
     inkscape:zoom="1.7586806"
     inkscape:cx="288"
     inkscape:cy="256"
     inkscape:window-x="-8"
     inkscape:window-y="-8"
     inkscape:window-maximized="1"
     inkscape:current-layer="g6" />
  <g
     class="fa-group"
     id="g6">
    <path
       class="fa-secondary"
       fill="currentColor"
       d="M576 152v80a23.94 23.94 0 0 1-24 24h-32a23.94 23.94 0 0 1-24-24v-80a72.11 72.11 0 0 0-72.7-72c-39.6.4-71.3 33.3-71.3 72.9V224h-80v-70.5C272 69.5 339.5.3 423.5 0S576 68 576 152z"
       opacity="0.4"
       id="path2" />
    <path
       class="fa-primary"
       fill="currentColor"
       d="M448 272v192a48 48 0 0 1-48 48H48a48 48 0 0 1-48-48V272a48 48 0 0 1 48-48h352a48 48 0 0 1 48 48z"
       id="path4"
       style="fill:#a4243b;fill-opacity:1" />
  </g>
</svg>
