<svg id="Ebene_1" data-name="Ebene 1" xmlns="http://www.w3.org/2000/svg" viewBox="0 0 354.42 49.41"><defs><style>.cls-1{fill:#05426a;}.cls-2{fill:#f5b333;}</style></defs><path class="cls-1" d="M74.28,40.62a1.37,1.37,0,0,0-1.5-1.5H70.2V29.27H81.07c3.47,0,5,1.5,5,5V52.92a1.36,1.36,0,0,0,1.49,1.5h2.58v9.85H79.24c-3.47,0-5-1.49-5-5Zm.88-24.94H85v9.51H75.16Z" transform="translate(-26.89 -15.68)"/><path class="cls-1" d="M109.28,28.45c7.07,0,9.17,2.45,9.17,2.45h.14s-.07-.68-.07-1.56V27a1.36,1.36,0,0,0-1.49-1.5h-2.59V15.68h10.88c3.46,0,5,1.49,5,5V52.92a1.36,1.36,0,0,0,1.49,1.5h2.59v9.85H123.89c-3.33,0-4.55-1.7-4.55-3.33v-.61h-.14s-2.92,4.76-10.13,4.76c-9.51,0-15.76-7.48-15.76-18.35C93.31,35.66,100,28.45,109.28,28.45Zm9.58,18.29c0-4.22-2.24-8.36-6.86-8.36-3.67,0-6.87,3-6.87,8.36s2.79,8.63,6.87,8.63C115.53,55.37,118.86,52.79,118.86,46.74Z" transform="translate(-26.89 -15.68)"/><path class="cls-1" d="M155.62,28.45c10.34,0,16.18,7.21,16.18,16.93,0,1.15-.27,3.53-.27,3.53H149.44c.88,4.42,4.42,6.39,8.16,6.39,5,0,9.31-3.67,9.31-3.67l4.69,7.88a22.55,22.55,0,0,1-15,5.58c-12.5,0-19.23-9-19.23-18.35C137.41,36.47,144.34,28.45,155.62,28.45Zm4.15,13.33a4.41,4.41,0,0,0-4.15-4.49,5.62,5.62,0,0,0-5.84,4.49Z" transform="translate(-26.89 -15.68)"/><path class="cls-1" d="M179.41,40.62a1.36,1.36,0,0,0-1.5-1.5h-2.58V29.27H185.8c3.19,0,4.89,1.56,4.89,3.94v.48a6.8,6.8,0,0,1-.07.81h.14a12.22,12.22,0,0,1,11.08-6.05c7.07,0,12.57,3.27,12.57,13.12V52.92a1.36,1.36,0,0,0,1.5,1.5h2.58v9.85H207.61c-3.46,0-5-1.49-5-5V43.75c0-3.27-1.29-4.63-3.87-4.63a6.89,6.89,0,0,0-6.93,5,14,14,0,0,0-.68,4.63V64.27H179.41Z" transform="translate(-26.89 -15.68)"/><path class="cls-1" d="M225,38.44h-4.49V29.27h4.83V19.82h11.42v9.45h7.34v9.17h-7.34V49.79c0,4,4,4.49,6.25,4.49a15.13,15.13,0,0,0,1.56-.07v10.2a23,23,0,0,1-3.19.2c-5.57,0-16.38-1.49-16.38-13.25Z" transform="translate(-26.89 -15.68)"/><path class="cls-1" d="M266.13,28.45c10.33,0,16.17,7.21,16.17,16.93,0,1.15-.27,3.53-.27,3.53H259.94c.88,4.42,4.42,6.39,8.16,6.39,5,0,9.31-3.67,9.31-3.67l4.69,7.88a22.55,22.55,0,0,1-15,5.58c-12.5,0-19.23-9-19.23-18.35C247.91,36.47,254.84,28.45,266.13,28.45Zm4.14,13.33a4.41,4.41,0,0,0-4.14-4.49,5.62,5.62,0,0,0-5.85,4.49Z" transform="translate(-26.89 -15.68)"/><path class="cls-1" d="M306,28.45c4.89,0,12.91,1.91,12.91,8.23V41.5H308.74V39.67c0-1.09-1.3-1.5-2.72-1.5-5,0-7.95,3.74-7.95,8.43,0,6,4.48,8.36,8.83,8.36,5,0,9.65-4.55,9.65-4.55l4.69,7.88a20.89,20.89,0,0,1-15.49,6.8c-12.51,0-19.51-8.7-19.51-18.35C286.24,37.49,292.76,28.45,306,28.45Z" transform="translate(-26.89 -15.68)"/><path class="cls-1" d="M343.05,28.45c11.08,0,19.85,7.41,19.85,18.42s-8.77,18.22-19.78,18.22-19.77-7.28-19.77-18.22S332.11,28.45,343.05,28.45Zm.07,26.85c4.28,0,7.95-3.19,7.95-8.43s-3.67-8.63-7.95-8.63-7.95,3.33-7.95,8.63S338.84,55.3,343.12,55.3Z" transform="translate(-26.89 -15.68)"/><rect class="cls-2" x="344.56" y="25.78" width="9.86" height="9.52"/><rect class="cls-2" y="25.78" width="9.86" height="9.52"/><rect class="cls-2" x="21.82" y="25.78" width="9.86" height="9.52"/></svg>