<?xml version="1.0" encoding="UTF-8" standalone="no"?>
<svg
   xmlns:dc="http://purl.org/dc/elements/1.1/"
   xmlns:cc="http://creativecommons.org/ns#"
   xmlns:rdf="http://www.w3.org/1999/02/22-rdf-syntax-ns#"
   xmlns:svg="http://www.w3.org/2000/svg"
   xmlns="http://www.w3.org/2000/svg"
   xmlns:sodipodi="http://sodipodi.sourceforge.net/DTD/sodipodi-0.dtd"
   xmlns:inkscape="http://www.inkscape.org/namespaces/inkscape"
   aria-hidden="true"
   focusable="false"
   data-prefix="fad"
   data-icon="unlock"
   class="svg-inline--fa fa-unlock fa-w-14"
   role="img"
   viewBox="0 0 576 512"
   version="1.1"
   id="svg8"
   sodipodi:docname="unlock-duotone.svg"
   width="576"
   height="512"
   inkscape:version="1.0.2-2 (e86c870879, 2021-01-15)">
  <metadata
     id="metadata14">
    <rdf:RDF>
      <cc:Work
         rdf:about="">
        <dc:format>image/svg+xml</dc:format>
        <dc:type
           rdf:resource="http://purl.org/dc/dcmitype/StillImage" />
        <dc:title></dc:title>
      </cc:Work>
    </rdf:RDF>
  </metadata>
  <defs
     id="defs12" />
  <sodipodi:namedview
     pagecolor="#ffffff"
     bordercolor="#666666"
     borderopacity="1"
     objecttolerance="10"
     gridtolerance="10"
     guidetolerance="10"
     inkscape:pageopacity="0"
     inkscape:pageshadow="2"
     inkscape:window-width="2560"
     inkscape:window-height="1377"
     id="namedview10"
     showgrid="false"
     inkscape:zoom="1.96875"
     inkscape:cx="224"
     inkscape:cy="256"
     inkscape:window-x="-8"
     inkscape:window-y="-8"
     inkscape:window-maximized="1"
     inkscape:current-layer="svg8" />
  <g
     class="fa-group"
     id="g6">
    <path
       class="fa-secondary"
       fill="currentColor"
       d="M 72,256 V 153.5 C 72,69.5 139.5,0.3 223.5,0 307.5,-0.3 376,68 376,152 v 16 a 23.94,23.94 0 0 1 -24,24 H 320 A 23.94,23.94 0 0 1 296,168 V 152 A 72.11,72.11 0 0 0 223.3,80 C 183.7,80.4 152,113.3 152,152.9 V 256 Z"
       opacity="0.4"
       id="path2" />
    <path
       class="fa-primary"
       fill="currentColor"
       d="M 400,512 H 48 A 48,48 0 0 1 0,464 V 304 a 48,48 0 0 1 48,-48 h 352 a 48,48 0 0 1 48,48 v 160 a 48,48 0 0 1 -48,48 z"
       id="path4" />
  </g>
</svg>
